# xmcd
#
# Track frame offsets: 
#        183
#        10753
#        23840
#        34983
#        50253
#        60778
#        72853
#        86058
#        99488
#        113053
#        123553
#        134403
#        145590
#        161375
#        172465
#        187528
#        201290
#        211628
#
# Disc length: 2972 seconds
#
# Revision: 0
# Processed by: cddbd v1.4PL0 Copyright (c) Steve Scherf et al.
# Submitted via: ExactAudioCopy v0.90b4
#
DISCID=ec0b9a12
DTITLE=Various Artist - The Nashville Dream - Cd 2
DYEAR=1999
DGENRE=
TTITLE0=Don Williams - Take my hand for a while
TTITLE1=Billie Jo Spears - What I've got in mind
TTITLE2=Hank Locklin - Send me the pillow
TTITLE3=Jeannie C. Riley - Harper valley P.T.A.
TTITLE4=Roger Miller - King of the road
TTITLE5=Patsy Cline - A poor man's roses
TTITLE6=Freddy fender - Silver wings
TTITLE7=George Jones - Hello darling
TTITLE8=Dottie West - D.I.V.O.R.C.E.
TTITLE9=Jim Reeves - He'll have to go
TTITLE10=Waylon Jennings - White Lightning
TTITLE11=Patsy Cline - I cried all the way to the alter
TTITLE12=Kenny Rogers - For the good times
TTITLE13=Billie Jo Spears - I'm so lonesome I could cry
TTITLE14=Don Gibson - Sweet dreams
TTITLE15=Gene Vincent/ I'm a lonesome fugitive
TTITLE16=Buck Owens - Rhythm 'n' Booze
TTITLE17=Razzy Bailey - 9.999.999 tears
EXTD=
EXTT0=
EXTT1=
EXTT2=
EXTT3=
EXTT4=
EXTT5=
EXTT6=
EXTT7=
EXTT8=
EXTT9=
EXTT10=
EXTT11=
EXTT12=
EXTT13=
EXTT14=
EXTT15=
EXTT16=
EXTT17=
PLAYORDER=
